<svg id="visual" viewBox="0 0 900 600" width="900" height="600" xmlns="http://www.w3.org/2000/svg" xmlns:xlink="http://www.w3.org/1999/xlink" version="1.1"><rect x="0" y="0" width="900" height="600" fill="#002233"></rect><path d="M0 519L21.5 506.2C43 493.3 86 467.7 128.8 446C171.7 424.3 214.3 406.7 257.2 407C300 407.3 343 425.7 385.8 440.7C428.7 455.7 471.3 467.3 514.2 470.8C557 474.3 600 469.7 642.8 453.7C685.7 437.7 728.3 410.3 771.2 409.3C814 408.3 857 433.7 878.5 446.3L900 459L900 601L878.5 601C857 601 814 601 771.2 601C728.3 601 685.7 601 642.8 601C600 601 557 601 514.2 601C471.3 601 428.7 601 385.8 601C343 601 300 601 257.2 601C214.3 601 171.7 601 128.8 601C86 601 43 601 21.5 601L0 601Z" fill="#0066FF" stroke-linecap="round" stroke-linejoin="miter"></path></svg>